<?xml version="1.0" encoding="utf-8"?>
<!-- Generator: Adobe Illustrator 16.0.0, SVG Export Plug-In . SVG Version: 6.00 Build 0)  -->
<!DOCTYPE svg PUBLIC "-//W3C//DTD SVG 1.1//EN" "http://www.w3.org/Graphics/SVG/1.1/DTD/svg11.dtd">
<svg version="1.1" id="Layer_1" xmlns="http://www.w3.org/2000/svg" xmlns:xlink="http://www.w3.org/1999/xlink" x="0px" y="0px"
	 width="242px" height="233px" viewBox="0 0 242 233" enable-background="new 0 0 242 233" xml:space="preserve">
<g>
	<path fill-rule="evenodd" clip-rule="evenodd" fill="#009640" d="M13.656,175.907c2.997-3.929,5.433-4.087,8.99-0.609
		c1.749,1.711,3.542,3.376,5.284,5.094c2.106,2.08,2.233,4.731,0.364,6.707c-1.81,1.913-4.668,2.026-6.729,0.023
		c-2.721-2.644-5.28-5.453-7.908-8.19C13.656,177.923,13.656,176.916,13.656,175.907z"/>
	<path fill-rule="evenodd" clip-rule="evenodd" fill="#009640" d="M234.87,21.532c-0.713,4.114-1.498,8.709-2.308,13.301
		c-2.84,16.119-5.681,32.238-8.535,48.354c-3.407,19.226-6.834,38.449-10.243,57.675c-2.181,12.299-4.32,24.605-6.533,36.898
		c-0.708,3.934-3.45,5.358-7.127,3.787c-13.07-5.583-26.141-11.17-39.183-16.818c-1.539-0.667-2.397-0.634-3.51,0.877
		c-8.101,11.011-16.337,21.921-24.506,32.882c-1.303,1.748-2.968,2.435-5.07,2.034c-1.968-0.376-2.991-1.677-3.61-3.549
		c-5.661-17.095-11.352-34.181-17.127-51.237c-0.274-0.809-1.327-1.63-2.193-1.922c-16.731-5.644-33.49-11.206-50.24-16.794
		c-3.764-1.256-5.315-4.182-3.571-7.006c0.603-0.977,1.673-1.773,2.695-2.367c29.842-17.314,59.706-34.59,89.564-51.877
		c27.308-15.811,54.612-31.627,81.917-47.443c0.87-0.504,1.708-1.065,2.594-1.542C231.298,14.947,234.9,17.148,234.87,21.532z
		 M221.909,41.323c-0.13-0.065-0.261-0.131-0.391-0.197c-25.377,35.527-50.755,71.053-76.256,106.755
		c18.013,7.718,35.74,15.314,53.77,23.04C206.682,127.589,214.296,84.456,221.909,41.323z M200.685,43.743
		c-0.071-0.089-0.142-0.178-0.212-0.266c-44.522,25.777-89.045,51.554-133.924,77.538c1.072,0.407,1.708,0.675,2.362,0.893
		c12.72,4.239,25.454,8.438,38.149,12.751c1.586,0.539,2.508,0.354,3.703-0.845c29.529-29.605,59.106-59.162,88.671-88.73
		C199.866,44.652,200.269,44.19,200.685,43.743z M192.636,65.488c-0.681,0.331-0.759,0.347-0.806,0.394
		c-25.003,24.99-50.011,49.975-74.961,75.019c-0.528,0.53-0.74,1.842-0.5,2.598c2.223,6.971,4.582,13.898,6.895,20.841
		c1.395,4.185,2.778,8.373,4.279,12.898c0.314-0.593,0.506-0.819,0.557-1.072c1.475-7.389,2.891-14.791,4.425-22.167
		c0.504-2.423,0.722-5.198,2.07-7.107c16.6-23.506,33.386-46.88,50.122-70.29C187.255,73.05,189.783,69.492,192.636,65.488z
		 M149.956,160.089c-2.904-1.247-5.537-2.377-8.417-3.613c-1.309,6.521-2.594,12.918-3.877,19.316
		c0.125,0.054,0.25,0.108,0.376,0.162C141.954,170.742,145.869,165.53,149.956,160.089z"/>
	<path fill-rule="evenodd" clip-rule="evenodd" fill="#009640" d="M87.148,219.253c-4.059-0.503-8.13-0.918-12.17-1.539
		c-2.92-0.448-4.702-2.934-4.22-5.505c0.51-2.721,3.037-4.062,6.083-3.685c4.265,0.528,8.563,0.825,12.856,1.068
		c3.054,0.172,4.875,1.676,4.983,4.465c0.096,2.501-1.766,4.575-4.49,4.885c-0.993,0.113-2.01,0.018-3.017,0.018
		C87.165,219.058,87.156,219.155,87.148,219.253z"/>
	<path fill-rule="evenodd" clip-rule="evenodd" fill="#009640" d="M54.093,210.08c-0.313-0.102-1.2-0.227-1.909-0.649
		c-4.125-2.453-8.256-4.902-12.29-7.5c-2.645-1.703-3.196-4.358-1.655-6.656c1.588-2.367,4.25-2.677,6.984-0.964
		c3.824,2.397,7.708,4.7,11.567,7.04c2.094,1.269,2.982,3.189,2.411,5.232C58.581,208.803,56.89,210.099,54.093,210.08z"/>
	<path fill-rule="evenodd" clip-rule="evenodd" fill="#009640" d="M112.119,213.97c-2.955-0.018-4.581-1.261-5.174-3.382
		c-0.567-2.026,0.178-4.183,2.05-5.189c2.964-1.595,5.98-3.103,9.037-4.514c1.946-0.898,4.043-0.187,5.345,1.551
		c1.23,1.642,1.436,4.225-0.063,5.562C119.903,211.037,115.722,212.724,112.119,213.97z"/>
	<path fill-rule="evenodd" clip-rule="evenodd" fill="#FFFFFF" d="M221.909,41.323c-7.613,43.133-15.228,86.267-22.877,129.598
		c-18.03-7.726-35.757-15.322-53.77-23.04c25.501-35.702,50.879-71.228,76.256-106.755
		C221.648,41.191,221.779,41.257,221.909,41.323z"/>
	<path fill-rule="evenodd" clip-rule="evenodd" fill="#FFFFFF" d="M200.685,43.743c-0.416,0.448-0.818,0.909-1.25,1.341
		c-29.565,29.568-59.142,59.125-88.671,88.73c-1.195,1.198-2.117,1.384-3.703,0.845c-12.695-4.313-25.429-8.512-38.149-12.751
		c-0.653-0.218-1.29-0.486-2.362-0.893c44.879-25.984,89.401-51.761,133.924-77.538C200.543,43.565,200.613,43.654,200.685,43.743z"
		/>
	<path fill-rule="evenodd" clip-rule="evenodd" fill="#FFFFFF" d="M192.636,65.488c-2.853,4.003-5.381,7.562-7.919,11.113
		c-16.736,23.41-33.522,46.784-50.122,70.29c-1.348,1.909-1.566,4.684-2.07,7.107c-1.534,7.376-2.95,14.778-4.425,22.167
		c-0.05,0.253-0.243,0.479-0.557,1.072c-1.5-4.525-2.884-8.714-4.279-12.898c-2.313-6.942-4.672-13.87-6.895-20.841
		c-0.241-0.756-0.029-2.068,0.5-2.598c24.95-25.043,49.958-50.029,74.961-75.019C191.877,65.835,191.955,65.819,192.636,65.488z"/>
	<path fill-rule="evenodd" clip-rule="evenodd" fill="#FFFFFF" d="M149.956,160.089c-4.087,5.441-8.002,10.653-11.917,15.864
		c-0.126-0.054-0.251-0.108-0.376-0.162c1.284-6.398,2.568-12.795,3.877-19.316C144.418,157.712,147.051,158.842,149.956,160.089z"
		/>
</g>
</svg>
